<svg xmlns="http://www.w3.org/2000/svg" xmlns:xlink="http://www.w3.org/1999/xlink" width="138" height="52" viewBox="0 0 138 52">
    <defs>
        <path id="a" d="M0 .172h89.937v26.18H0z"/>
        <path id="c" d="M.179.071v9.192h3.265V3.337h51.288v45.034H3.444v-6.014H.18v9.28h57.819V.07H.178zm36.755 25.49v.659c0 6.69 2.098 9.404 4.861 9.404.864 0 1.53-.137 2.221-.576v-3.29c-.617.41-1.21.603-1.678.603-1.382 0-2.344-1.042-2.344-6.114v-.712c0-4.798.962-6.114 2.295-6.114.567 0 1.06.219 1.678.63v-3.454c-.642-.33-1.136-.438-1.974-.438-2.813 0-5.059 2.658-5.059 9.403zm-3.282-9.265l-1.653 7.183-1.629-7.183h-3.109L30.47 27.92v7.567h3.01V27.92l3.208-11.624h-3.035zm-10.414 0v9.924l-3.109-9.924h-2.788v19.19h2.887v-10.39l3.257 10.39h2.64v-19.19h-2.887z"/>
        <linearGradient id="d" x1="0%" y1="50%" y2="50%">
            <stop offset="0%" stop-color="#4FE2C1"/>
            <stop offset="100%" stop-color="#234FDA"/>
        </linearGradient>
    </defs>
    <g fill="none" fill-rule="evenodd">
        <g transform="translate(0 9.383)">
            <mask id="b" fill="#fff">
                <use xlink:href="#a"/>
            </mask>
            <path fill="#FFF" d="M89.865 10.82c-.391-2.45-1.812-3.695-4.515-3.695h-7.788c-2.7 0-4.122 1.244-4.514 3.696a7.49 7.49 0 0 0-.071.888v14.61h4.871v-12.93c0-.998.35-1.395 1.3-1.395h4.624c.852 0 1.294.397 1.294 1.395v12.93h4.871v-14.61a7.57 7.57 0 0 0-.072-.888zm-23.89 15.498h4.869V7.124h-4.87v19.194zM57.042.185h-4.871v26.148h4.87V12.009h4.667v-4.87h-4.666V.185zM45.205 26.32h4.87V.172h-4.87v26.147zm-33.048-12.94c0-1.028-.544-1.384-1.28-1.384H6.256c-.928 0-1.388.418-1.388 1.35v8.097h5.99c.852 0 1.299-.536 1.299-1.387V13.38zm4.799-2.274c.036.25.072.533.072.782v9.598c0 1.032-.214 1.848-.64 2.56-.926 1.635-2.027 2.274-3.804 2.274L.01 26.325 0 .172h4.868v6.953h7.787c.32 0 .64.035.924.106 1.848.391 3.127 1.813 3.377 3.874zm14.293 8.95c0 .998-.35 1.395-1.3 1.395h-4.623c-.852 0-1.294-.397-1.294-1.395V7.125H19.16v14.61c0 .283.037.602.072.888.39 2.451 1.812 3.696 4.515 3.696h7.788c2.7 0 4.121-1.245 4.514-3.696.035-.286.07-.605.07-.889V7.124h-4.87v12.93zm7.004 6.297h4.87V7.157h-4.87v19.195z" mask="url(#b)"/>
        </g>
        <g transform="translate(79.636 .292)">
            <mask id="e" fill="#fff">
                <use xlink:href="#c"/>
            </mask>
            <path fill="url(#d)" d="M.179.071v9.192h3.265V3.337h51.288v45.034H3.444v-6.014H.18v9.28h57.819V.07H.178zm36.755 25.49v.659c0 6.69 2.098 9.404 4.861 9.404.864 0 1.53-.137 2.221-.576v-3.29c-.617.41-1.21.603-1.678.603-1.382 0-2.344-1.042-2.344-6.114v-.712c0-4.798.962-6.114 2.295-6.114.567 0 1.06.219 1.678.63v-3.454c-.642-.33-1.136-.438-1.974-.438-2.813 0-5.059 2.658-5.059 9.403zm-3.282-9.265l-1.653 7.183-1.629-7.183h-3.109L30.47 27.92v7.567h3.01V27.92l3.208-11.624h-3.035zm-10.414 0v9.924l-3.109-9.924h-2.788v19.19h2.887v-10.39l3.257 10.39h2.64v-19.19h-2.887z" mask="url(#e)"/>
        </g>
    </g>
</svg>
